<svg xmlns="http://www.w3.org/2000/svg" viewBox="0 0 186.06 23.79"><defs><style>.cls-1{fill:#383849;}.cls-2{fill:#ca2d40;}</style></defs><title>Ресурс 2</title><g id="Слой_2" data-name="Слой 2"><g id="Слой_1-2" data-name="Слой 1"><path class="cls-1" d="M7.09,8.17A6.13,6.13,0,0,1,9.54,5.79a8,8,0,0,1,3.61-.74q4.28,0,6,3.12a7.4,7.4,0,0,1,6.55-3.12,7.57,7.57,0,0,1,5.58,1.87,7.5,7.5,0,0,1,1.87,5.54V23H25.62V13.8c-.05-2.18-.94-3.27-2.65-3.27s-2.58,1.09-2.58,3.27V23H12.81V14a5.14,5.14,0,0,0-.56-2.67,2.17,2.17,0,0,0-1.89-.74,2.65,2.65,0,0,0-2.14.94,4.18,4.18,0,0,0-.76,2.69V23H0V5.59H6.92Z"/><path class="cls-1" d="M58.74,14.42a8.31,8.31,0,0,1-.82,3.69A8.69,8.69,0,0,1,55.63,21a10.81,10.81,0,0,1-3.48,1.91,14.41,14.41,0,0,1-8.81,0A10.5,10.5,0,0,1,39.86,21a9,9,0,0,1-2.29-3,8.59,8.59,0,0,1-.82-3.76,8.32,8.32,0,0,1,.82-3.72A8.65,8.65,0,0,1,39.9,7.59a10.74,10.74,0,0,1,3.56-1.9A14.45,14.45,0,0,1,48,5a13.06,13.06,0,0,1,4.33.69,10.06,10.06,0,0,1,3.4,2,9,9,0,0,1,2.22,3A8.79,8.79,0,0,1,58.74,14.42Zm-7.66,0c0-3.24-1.09-4.87-3.27-4.87a3,3,0,0,0-2.53,1.17,5.62,5.62,0,0,0-.87,3.41q0,4.94,3.31,4.94T51.08,14.42Z"/><path class="cls-1" d="M70.24,5.59H73.9V9.48H70.28V16a2.12,2.12,0,0,0,.43,1.63,2.25,2.25,0,0,0,1.63.47,5.26,5.26,0,0,0,.6,0l1-.12v5l-1.48.18c-.41,0-.8.09-1.17.11l-1.12.06H68.91q-4.68,0-5.72-2.58a6.77,6.77,0,0,1-.37-2.28,7.06,7.06,0,0,1,0-.84V9.52H60.06V5.59h2.72V0h7.46Z"/><path class="cls-1" d="M97.84,23h-7l-.21-2.54A10.79,10.79,0,0,1,89.36,22,5.59,5.59,0,0,1,88,22.9a6.66,6.66,0,0,1-1.6.51,10.2,10.2,0,0,1-1.92.16,10,10,0,0,1-2.51-.32,7.6,7.6,0,0,1-2.11-.84,6,6,0,0,1-1.27-1.07A4.56,4.56,0,0,1,77.75,20a7.49,7.49,0,0,1-.43-1.82,21.66,21.66,0,0,1-.12-2.45V5.59h7.21v9.19A4,4,0,0,0,85,17.27a2.65,2.65,0,0,0,2.11.71,3.15,3.15,0,0,0,2.41-.8,3.79,3.79,0,0,0,.74-2.61v-9h7.58Z"/><path class="cls-1" d="M108.09,17.36c.11,1.63,1.16,2.44,3.15,2.44a2.87,2.87,0,0,0,1.64-.42,1.25,1.25,0,0,0,.61-1.07,1.65,1.65,0,0,0-.1-.62,1,1,0,0,0-.45-.44,5.33,5.33,0,0,0-1-.34c-.44-.11-1-.22-1.73-.35l-3-.5a9.14,9.14,0,0,1-4.43-1.8,4.22,4.22,0,0,1-1.5-3.36,4.79,4.79,0,0,1,2.61-4.29A14,14,0,0,1,111,5.05a16.83,16.83,0,0,1,5,.67,6.93,6.93,0,0,1,3.17,1.84A3.93,3.93,0,0,1,120,8.83a12.45,12.45,0,0,1,.43,1.89h-7a2.12,2.12,0,0,0-.8-1.35,3.33,3.33,0,0,0-1.8-.4,3.52,3.52,0,0,0-1.62.35c-.46.23-.68.51-.68.85,0,.78.83,1.21,2.51,1.31a27.52,27.52,0,0,1,3,.4,19.42,19.42,0,0,1,2.82.69A7.31,7.31,0,0,1,119.37,14a4.84,4.84,0,0,1,1.7,3.7,4.76,4.76,0,0,1-.7,2.56,5.82,5.82,0,0,1-2,1.93,10.59,10.59,0,0,1-3.13,1.22,18,18,0,0,1-4.12.43,16.89,16.89,0,0,1-6-.94,6.49,6.49,0,0,1-3.5-2.73,4.63,4.63,0,0,1-.52-1.16,9.73,9.73,0,0,1-.22-1.6Z"/><text></text><circle class="cls-1" cx="135.06" cy="14.58" r="9.01"/><circle class="cls-1" cx="156.06" cy="14.57" r="9.01"/><circle class="cls-2" cx="177.06" cy="14.31" r="9.01"/></g></g></svg>